<svg xmlns="http://www.w3.org/2000/svg" viewBox="0 0 1330 1330" width="24" height="24">
  <g transform="scale(1,-1) translate(0,-1040)">
    <path d="M786 -64Q821 -59 850.0 -49.0Q879 -39 899 -19Q924 6 924 57L922 108Q922 114 921 120Q920 154 920.5 178.0Q921 202 926 220Q931 240 954.5 247.5Q978 255 1031 261Q1085 267 1111.0 273.5Q1137 280 1160 296Q1184 313 1196.5 339.5Q1209 366 1209 400Q1209 530 1134.5 637.0Q1060 744 935.0 806.0Q810 868 664 868Q518 868 393.0 806.0Q268 744 194.0 637.0Q120 530 120 400Q120 270 194.0 162.5Q268 55 393.5 -7.0Q519 -69 664 -69Q699 -69 729.0 -68.0Q759 -67 786 -64ZM454 392Q454 419 434.5 438.5Q415 458 387 458Q359 458 340.0 438.5Q321 419 321 392Q321 364 340.0 344.5Q359 325 387 325Q415 325 434.5 344.5Q454 364 454 392ZM205 400Q205 502 265.5 590.0Q326 678 431.5 730.5Q537 783 664 783Q791 783 896.5 730.5Q1002 678 1063.0 590.0Q1124 502 1124 400Q1124 385 1120.5 378.0Q1117 371 1111 366Q1094 354 1055 350L1039 348Q1003 345 965 338Q904 326 872 293Q843 264 837 211Q834 195 834.5 175.0Q835 155 836 137V128L839 59Q840 47 838.5 42.5Q837 38 832 36Q817 26 775 21Q741 17 664 17Q537 17 431.5 69.5Q326 122 265.5 210.0Q205 298 205 400ZM587 580Q587 607 567.5 626.5Q548 646 520 646Q492 646 473.0 626.5Q454 607 454 580Q454 552 473.0 532.5Q492 513 520 513Q548 513 567.5 532.5Q587 552 587 580ZM833 603Q833 630 814.0 649.5Q795 669 767 669Q739 669 719.5 649.5Q700 630 700 603Q700 575 719.5 555.5Q739 536 767 536Q795 536 814.0 555.5Q833 575 833 603Z" fill="currentColor"/>
  </g>
</svg>
