<svg xmlns="http://www.w3.org/2000/svg" viewBox="0 0 1330 1330" width="24" height="24">
  <g transform="scale(1,-1) translate(0,-1040)">
    <path d="M1186 716Q1186 755 1167.0 787.5Q1148 820 1115.0 839.0Q1082 858 1043 858Q1005 858 972.0 839.0Q939 820 920.0 787.5Q901 755 901 716Q901 677 920.0 644.0Q939 611 972.0 592.0Q1005 573 1043 573Q1082 573 1115.0 592.0Q1148 611 1167.0 644.0Q1186 677 1186 716ZM1189 522Q1155 498 1120 488Q1112 486 1112 478V201Q1112 148 1110.0 125.0Q1108 102 1099 86Q1083 54 1052 37Q1036 29 1013.0 27.5Q990 26 937 26H392Q338 26 315.5 27.5Q293 29 276 37Q244 54 228 86Q220 102 218.5 125.0Q217 148 217 201V539V586Q217 589 219.5 590.5Q222 592 225 590L564 343Q599 318 625 308Q666 292 709 307Q743 320 800 366L948 488Q952 492 951.5 495.5Q951 499 946 501Q910 517 882 541Q876 548 870 542L729 423Q704 402 687.0 396.0Q670 390 652.0 396.5Q634 403 604 424L251 679Q249 680 248.5 682.0Q248 684 250 686Q261 698 276 706Q293 714 315.5 715.5Q338 717 392 717H801Q806 717 806 722Q806 759 819 796Q820 798 818.5 800.5Q817 803 814 803H435Q342 803 302.5 799.5Q263 796 235 782Q208 768 186.5 747.0Q165 726 152 699Q138 671 134.5 631.5Q131 592 131 499V244Q131 151 134.5 111.5Q138 72 152 44Q178 -10 235 -39Q263 -53 302.5 -56.5Q342 -60 435 -60H892Q986 -60 1026.0 -56.5Q1066 -53 1093 -39Q1148 -11 1176 44Q1190 72 1193.5 111.5Q1197 151 1197 244V518Q1197 521 1194.0 522.5Q1191 524 1189 522Z" fill="currentColor"/>
  </g>
</svg>
