<svg xmlns="http://www.w3.org/2000/svg" viewBox="0 0 1330 1330" width="24" height="24">
  <g transform="scale(1,-1) translate(0,-1040)">
    <path d="M1073 0 1140 734Q1144 773 1122.0 804.0Q1100 835 1063.0 845.0Q1026 855 991 838L252 479Q215 461 201.0 424.5Q187 388 200.0 350.5Q213 313 249 293L450 185Q459 180 464.0 171.0Q469 162 469 151V-18Q469 -48 489.0 -69.0Q509 -90 538.5 -93.0Q568 -96 592 -78L702 7Q710 14 721.0 14.5Q732 15 742 10L920 -83Q952 -100 986.5 -93.5Q1021 -87 1045.5 -61.5Q1070 -36 1073 0ZM664 86 570 9Q566 5 560.5 8.0Q555 11 555 17V166Q555 192 541.0 215.0Q527 238 504 250L290 364Q281 368 278.0 376.5Q275 385 278.5 393.5Q282 402 290 406L980 735L622 325Q615 317 616.0 305.5Q617 294 626 287L652 267Q660 261 670.5 262.0Q681 263 688 271L1050 685L988 19Q987 6 976.0 0.0Q965 -6 954 0L768 96Q743 109 715.0 106.5Q687 104 664 86Z" fill="currentColor"/>
  </g>
</svg>
