<svg xmlns="http://www.w3.org/2000/svg" viewBox="0 0 1330 1330" width="24" height="24">
  <g transform="scale(1,-1) translate(0,-1040)">
    <path d="M341 -133Q322 -110 320.0 -82.0Q318 -54 327 8Q351 179 471 284Q514 322 529.5 337.0Q545 352 548 360Q552 371 552.0 376.0Q552 381 548 392Q545 400 528.0 416.5Q511 433 471 468Q351 572 327 744Q318 805 320.0 833.0Q322 861 341 884Q360 907 391.5 912.0Q423 917 499 917H831Q906 917 937.5 912.0Q969 907 988 884Q1008 862 1009.5 834.5Q1011 807 1002 744Q979 573 860 468L841 452Q817 430 800.5 414.0Q784 398 782 391Q778 381 778.0 376.0Q778 371 782 360Q785 352 799.0 338.5Q813 325 847 296L860 284Q979 179 1002 8Q1011 -55 1009.5 -82.5Q1008 -110 988 -133Q969 -155 937.5 -160.0Q906 -165 831 -165H499Q423 -165 391.5 -160.0Q360 -155 341 -133ZM896 697Q902 717 893.5 728.5Q885 740 864 740H465Q443 740 435.5 729.0Q428 718 433 700Q454 623 506.5 561.0Q559 499 631 461Q653 450 665.5 450.0Q678 450 700 461Q771 498 823.0 561.0Q875 624 896 697Z" fill="currentColor"/>
  </g>
</svg>
