<svg xmlns="http://www.w3.org/2000/svg" viewBox="0 0 1330 1330" width="24" height="24">
  <g transform="scale(1,-1) translate(0,-1040)">
    <path d="M579 -56V-30Q579 -17 572.0 -9.0Q565 -1 551 -1H477Q424 -1 401.0 1.0Q378 3 362 11Q329 28 314 59Q306 75 304.0 98.0Q302 121 302 174V244Q302 261 295.5 268.5Q289 276 274 276H245Q216 276 216 244Q216 148 220.0 95.5Q224 43 237 17Q265 -37 320 -66Q346 -79 396.5 -82.5Q447 -86 546 -86Q563 -86 571.0 -79.0Q579 -72 579 -56ZM1103 470Q1103 574 1099.5 623.0Q1096 672 1083 697Q1054 752 1000 780Q974 793 926.0 797.0Q878 801 768 801Q757 801 749.0 793.5Q741 786 741 773V743Q741 730 748.5 722.5Q756 715 768 715H843Q897 715 919.5 713.0Q942 711 958 703Q988 688 1006 655Q1014 639 1016.0 616.5Q1018 594 1018 540V470Q1018 454 1025.0 446.0Q1032 438 1045 438H1075Q1089 438 1096.0 446.5Q1103 455 1103 470ZM471 760V814Q471 828 463.0 836.0Q455 844 441 844H415Q401 844 393.0 836.0Q385 828 385 814V760Q385 756 382.5 753.0Q380 750 375 750H220Q206 750 198.0 742.0Q190 734 190 720V497Q190 483 198.0 475.0Q206 467 220 467H375Q385 467 385 457V330Q385 316 393.0 308.0Q401 300 415 300H441Q455 300 463.0 308.0Q471 316 471 330V457Q471 467 481 467H637Q651 467 659.0 475.0Q667 483 667 497V720Q667 734 659.0 742.0Q651 750 637 750H481Q477 750 474.0 753.0Q471 756 471 760ZM270 555V660Q270 665 273.0 667.5Q276 670 280 670H375Q380 670 382.5 667.5Q385 665 385 660V555Q385 545 375 545H280Q270 545 270 555ZM471 555V660Q471 665 474.0 667.5Q477 670 481 670H577Q582 670 584.5 667.5Q587 665 587 660V555Q587 545 577 545H481Q471 545 471 555ZM1071 -94H1113Q1130 -94 1136.5 -84.5Q1143 -75 1137 -59L986 341Q978 365 952 365H902Q876 365 868 341L717 -59Q711 -75 717.5 -84.5Q724 -94 741 -94H782Q807 -94 816 -70L842 5Q845 13 854 13H999Q1008 13 1011 5L1037 -70Q1046 -94 1071 -94ZM882 116 919 218Q921 224 925.5 224.0Q930 224 932 218L971 116Q974 105 963 105H890Q879 105 882 116Z" fill="currentColor"/>
  </g>
</svg>
